<mxfile host="app.diagrams.net" modified="2023-11-23T10:31:36.526Z" agent="Mozilla/5.0 (Windows NT 10.0; Win64; x64; rv:120.0) Gecko/20100101 Firefox/120.0" etag="Ag-mJVXZcK9ZhIErtiKs" version="22.1.3" type="github">
  <diagram name="Page-1" id="-zQvX4ZLQw2j2gYhCtF6">
    <mxGraphModel dx="754" dy="1052" grid="1" gridSize="10" guides="1" tooltips="1" connect="1" arrows="1" fold="1" page="1" pageScale="1" pageWidth="850" pageHeight="1100" math="0" shadow="0">
      <root>
        <mxCell id="0" />
        <mxCell id="1" parent="0" />
        <mxCell id="OrUPgH0xgMl1emSy32sQ-38" value="" style="edgeStyle=orthogonalEdgeStyle;rounded=0;orthogonalLoop=1;jettySize=auto;html=1;strokeColor=default;" parent="1" source="OrUPgH0xgMl1emSy32sQ-9" target="OrUPgH0xgMl1emSy32sQ-34" edge="1">
          <mxGeometry relative="1" as="geometry" />
        </mxCell>
        <mxCell id="OrUPgH0xgMl1emSy32sQ-9" value="GameEngine" style="swimlane;fontStyle=1;align=center;verticalAlign=top;childLayout=stackLayout;horizontal=1;startSize=40;horizontalStack=0;resizeParent=1;resizeParentMax=0;resizeLast=0;collapsible=1;marginBottom=0;whiteSpace=wrap;html=1;fillColor=#e1d5e7;strokeColor=#9673a6;" parent="1" vertex="1">
          <mxGeometry x="160" y="450" width="160" height="100" as="geometry" />
        </mxCell>
        <mxCell id="OrUPgH0xgMl1emSy32sQ-10" value="+ field: type" style="text;strokeColor=none;fillColor=none;align=left;verticalAlign=top;spacingLeft=4;spacingRight=4;overflow=hidden;rotatable=0;points=[[0,0.5],[1,0.5]];portConstraint=eastwest;whiteSpace=wrap;html=1;" parent="OrUPgH0xgMl1emSy32sQ-9" vertex="1">
          <mxGeometry y="40" width="160" height="26" as="geometry" />
        </mxCell>
        <mxCell id="OrUPgH0xgMl1emSy32sQ-11" value="" style="line;strokeWidth=1;fillColor=none;align=left;verticalAlign=middle;spacingTop=-1;spacingLeft=3;spacingRight=3;rotatable=0;labelPosition=right;points=[];portConstraint=eastwest;strokeColor=inherit;" parent="OrUPgH0xgMl1emSy32sQ-9" vertex="1">
          <mxGeometry y="66" width="160" height="8" as="geometry" />
        </mxCell>
        <mxCell id="OrUPgH0xgMl1emSy32sQ-12" value="+ method(type): type" style="text;strokeColor=none;fillColor=none;align=left;verticalAlign=top;spacingLeft=4;spacingRight=4;overflow=hidden;rotatable=0;points=[[0,0.5],[1,0.5]];portConstraint=eastwest;whiteSpace=wrap;html=1;" parent="OrUPgH0xgMl1emSy32sQ-9" vertex="1">
          <mxGeometry y="74" width="160" height="26" as="geometry" />
        </mxCell>
        <mxCell id="OrUPgH0xgMl1emSy32sQ-34" value="&lt;div&gt;GameCore&lt;/div&gt;&lt;div&gt;{abstract}&lt;br&gt;&lt;/div&gt;" style="swimlane;fontStyle=1;align=center;verticalAlign=top;childLayout=stackLayout;horizontal=1;startSize=40;horizontalStack=0;resizeParent=1;resizeParentMax=0;resizeLast=0;collapsible=1;marginBottom=0;whiteSpace=wrap;html=1;fillColor=#f8cecc;strokeColor=#b85450;" parent="1" vertex="1">
          <mxGeometry x="160" y="230" width="160" height="100" as="geometry" />
        </mxCell>
        <mxCell id="OrUPgH0xgMl1emSy32sQ-35" value="+ field: type" style="text;strokeColor=none;fillColor=none;align=left;verticalAlign=top;spacingLeft=4;spacingRight=4;overflow=hidden;rotatable=0;points=[[0,0.5],[1,0.5]];portConstraint=eastwest;whiteSpace=wrap;html=1;" parent="OrUPgH0xgMl1emSy32sQ-34" vertex="1">
          <mxGeometry y="40" width="160" height="26" as="geometry" />
        </mxCell>
        <mxCell id="OrUPgH0xgMl1emSy32sQ-36" value="" style="line;strokeWidth=1;fillColor=none;align=left;verticalAlign=middle;spacingTop=-1;spacingLeft=3;spacingRight=3;rotatable=0;labelPosition=right;points=[];portConstraint=eastwest;strokeColor=inherit;" parent="OrUPgH0xgMl1emSy32sQ-34" vertex="1">
          <mxGeometry y="66" width="160" height="8" as="geometry" />
        </mxCell>
        <mxCell id="OrUPgH0xgMl1emSy32sQ-37" value="+ method(type): type" style="text;strokeColor=none;fillColor=none;align=left;verticalAlign=top;spacingLeft=4;spacingRight=4;overflow=hidden;rotatable=0;points=[[0,0.5],[1,0.5]];portConstraint=eastwest;whiteSpace=wrap;html=1;" parent="OrUPgH0xgMl1emSy32sQ-34" vertex="1">
          <mxGeometry y="74" width="160" height="26" as="geometry" />
        </mxCell>
        <mxCell id="OrUPgH0xgMl1emSy32sQ-48" value="Animation" style="swimlane;fontStyle=1;align=center;verticalAlign=top;childLayout=stackLayout;horizontal=1;startSize=26;horizontalStack=0;resizeParent=1;resizeParentMax=0;resizeLast=0;collapsible=1;marginBottom=0;whiteSpace=wrap;html=1;fillColor=#dae8fc;strokeColor=#6c8ebf;" parent="1" vertex="1">
          <mxGeometry x="560" y="458" width="300" height="260" as="geometry" />
        </mxCell>
        <mxCell id="OrUPgH0xgMl1emSy32sQ-49" value="&lt;div&gt;- frames : ArrayList&lt;/div&gt;&lt;div&gt;- currFrameIndex : int&lt;/div&gt;&lt;div&gt;- animTimes : long&lt;/div&gt;&lt;div&gt;- totalDuration : long&lt;br&gt;&lt;/div&gt;" style="text;strokeColor=none;fillColor=none;align=left;verticalAlign=top;spacingLeft=4;spacingRight=4;overflow=hidden;rotatable=0;points=[[0,0.5],[1,0.5]];portConstraint=eastwest;whiteSpace=wrap;html=1;" parent="OrUPgH0xgMl1emSy32sQ-48" vertex="1">
          <mxGeometry y="26" width="300" height="64" as="geometry" />
        </mxCell>
        <mxCell id="OrUPgH0xgMl1emSy32sQ-50" value="" style="line;strokeWidth=1;fillColor=none;align=left;verticalAlign=middle;spacingTop=-1;spacingLeft=3;spacingRight=3;rotatable=0;labelPosition=right;points=[];portConstraint=eastwest;strokeColor=inherit;" parent="OrUPgH0xgMl1emSy32sQ-48" vertex="1">
          <mxGeometry y="90" width="300" height="8" as="geometry" />
        </mxCell>
        <mxCell id="OrUPgH0xgMl1emSy32sQ-51" value="&lt;div&gt;+ Animation()&lt;/div&gt;&lt;div&gt;- Animation( frames: Arraylist, totalDuration: long)&lt;/div&gt;&lt;div&gt;+ clone() : Object&lt;/div&gt;&lt;div&gt;+ addFrame(image : Image, duration: long): void&lt;/div&gt;&lt;div&gt;+ start(): void&lt;/div&gt;&lt;div&gt;+ update(elapsedTime: long): void&lt;br&gt;&lt;/div&gt;&lt;div&gt;+ getImage(): Image&lt;/div&gt;&lt;div&gt;- getFrame(i: int): AnimFrame&lt;br&gt;&lt;/div&gt;&lt;div&gt;&lt;br&gt;&lt;/div&gt;&lt;div&gt;&lt;br&gt;&lt;/div&gt;&lt;div&gt;&lt;br&gt;&lt;/div&gt;" style="text;strokeColor=none;fillColor=none;align=left;verticalAlign=top;spacingLeft=4;spacingRight=4;overflow=hidden;rotatable=0;points=[[0,0.5],[1,0.5]];portConstraint=eastwest;whiteSpace=wrap;html=1;" parent="OrUPgH0xgMl1emSy32sQ-48" vertex="1">
          <mxGeometry y="98" width="300" height="162" as="geometry" />
        </mxCell>
        <mxCell id="OrUPgH0xgMl1emSy32sQ-52" value="AnimFrame (private)" style="swimlane;fontStyle=1;align=center;verticalAlign=top;childLayout=stackLayout;horizontal=1;startSize=26;horizontalStack=0;resizeParent=1;resizeParentMax=0;resizeLast=0;collapsible=1;marginBottom=0;whiteSpace=wrap;html=1;fillColor=#dae8fc;strokeColor=#6c8ebf;" parent="1" vertex="1">
          <mxGeometry x="585" y="800" width="250" height="104" as="geometry" />
        </mxCell>
        <mxCell id="OrUPgH0xgMl1emSy32sQ-53" value="&lt;div&gt;-image : Image&lt;/div&gt;&lt;div&gt;-endTime: long&lt;br&gt;&lt;/div&gt;" style="text;strokeColor=none;fillColor=none;align=left;verticalAlign=top;spacingLeft=4;spacingRight=4;overflow=hidden;rotatable=0;points=[[0,0.5],[1,0.5]];portConstraint=eastwest;whiteSpace=wrap;html=1;" parent="OrUPgH0xgMl1emSy32sQ-52" vertex="1">
          <mxGeometry y="26" width="250" height="44" as="geometry" />
        </mxCell>
        <mxCell id="OrUPgH0xgMl1emSy32sQ-54" value="" style="line;strokeWidth=1;fillColor=none;align=left;verticalAlign=middle;spacingTop=-1;spacingLeft=3;spacingRight=3;rotatable=0;labelPosition=right;points=[];portConstraint=eastwest;strokeColor=inherit;" parent="OrUPgH0xgMl1emSy32sQ-52" vertex="1">
          <mxGeometry y="70" width="250" height="8" as="geometry" />
        </mxCell>
        <mxCell id="OrUPgH0xgMl1emSy32sQ-55" value="+AnimFrame(image: Image, endTime: long" style="text;strokeColor=none;fillColor=none;align=left;verticalAlign=top;spacingLeft=4;spacingRight=4;overflow=hidden;rotatable=0;points=[[0,0.5],[1,0.5]];portConstraint=eastwest;whiteSpace=wrap;html=1;" parent="OrUPgH0xgMl1emSy32sQ-52" vertex="1">
          <mxGeometry y="78" width="250" height="26" as="geometry" />
        </mxCell>
        <mxCell id="OrUPgH0xgMl1emSy32sQ-56" style="edgeStyle=orthogonalEdgeStyle;rounded=0;orthogonalLoop=1;jettySize=auto;html=1;entryX=0.497;entryY=1.005;entryDx=0;entryDy=0;entryPerimeter=0;" parent="1" source="OrUPgH0xgMl1emSy32sQ-52" target="OrUPgH0xgMl1emSy32sQ-51" edge="1">
          <mxGeometry relative="1" as="geometry" />
        </mxCell>
        <mxCell id="OrUPgH0xgMl1emSy32sQ-57" value="ScreenManager" style="swimlane;fontStyle=1;align=center;verticalAlign=top;childLayout=stackLayout;horizontal=1;startSize=26;horizontalStack=0;resizeParent=1;resizeParentMax=0;resizeLast=0;collapsible=1;marginBottom=0;whiteSpace=wrap;html=1;fillColor=#dae8fc;strokeColor=#6c8ebf;" parent="1" vertex="1">
          <mxGeometry x="980" y="458" width="430" height="310" as="geometry" />
        </mxCell>
        <mxCell id="OrUPgH0xgMl1emSy32sQ-58" value="- device: GraphicDevice" style="text;strokeColor=none;fillColor=none;align=left;verticalAlign=top;spacingLeft=4;spacingRight=4;overflow=hidden;rotatable=0;points=[[0,0.5],[1,0.5]];portConstraint=eastwest;whiteSpace=wrap;html=1;" parent="OrUPgH0xgMl1emSy32sQ-57" vertex="1">
          <mxGeometry y="26" width="430" height="34" as="geometry" />
        </mxCell>
        <mxCell id="OrUPgH0xgMl1emSy32sQ-60" value="&lt;div&gt;+ ScreenManager(): &lt;br&gt;&lt;/div&gt;&lt;div&gt;+ getCompatibleDisplayModes(): DisplayMode[]&lt;/div&gt;&lt;div&gt;+ findFirstCompatibleMode(modes[] : DisplayMode&lt;/div&gt;&lt;div&gt;+ getCurrentDisplayMode(mode1: DisplayMode, mode2: DisplayMode): DisplayMode&lt;br&gt;&lt;/div&gt;&lt;div&gt;+ displayModesMatch(mode1: DisplayMode, mode2: DisplayMode): boolean&lt;br&gt;&lt;/div&gt;&lt;div&gt;+setFullScreen(displayMode: DisplayMode): void&lt;/div&gt;&lt;div&gt;+ getGraphics() : Graphics2D&lt;/div&gt;&lt;div&gt;+ update() : void&lt;/div&gt;&lt;div&gt;+&amp;nbsp; getFullScreenWindow(): JFrame&lt;br&gt;&lt;/div&gt;&lt;div&gt;&lt;br&gt;&lt;/div&gt;&lt;div&gt;+ getWidth(): int&lt;/div&gt;&lt;div&gt;+ getHeaight(): int&lt;/div&gt;&lt;div&gt;+ restoreScreen(): void&lt;/div&gt;&lt;div&gt;+createCompatibleImage(w: int, h: int, transparancy: int)&lt;br&gt;&lt;/div&gt;&lt;div&gt;&lt;br&gt;&lt;/div&gt;" style="text;strokeColor=none;fillColor=none;align=left;verticalAlign=top;spacingLeft=4;spacingRight=4;overflow=hidden;rotatable=0;points=[[0,0.5],[1,0.5]];portConstraint=eastwest;whiteSpace=wrap;html=1;" parent="OrUPgH0xgMl1emSy32sQ-57" vertex="1">
          <mxGeometry y="60" width="430" height="250" as="geometry" />
        </mxCell>
        <mxCell id="NLJNhM4sE701zWvW4vr5-2" value="Sprite" style="swimlane;fontStyle=1;align=center;verticalAlign=top;childLayout=stackLayout;horizontal=1;startSize=26;horizontalStack=0;resizeParent=1;resizeParentMax=0;resizeLast=0;collapsible=1;marginBottom=0;whiteSpace=wrap;html=1;fillColor=#dae8fc;strokeColor=#6c8ebf;" vertex="1" parent="1">
          <mxGeometry x="1520" y="460" width="250" height="330" as="geometry" />
        </mxCell>
        <mxCell id="NLJNhM4sE701zWvW4vr5-3" value="&lt;div&gt;- anim: Animation&lt;/div&gt;&lt;div&gt;- x: float&lt;/div&gt;&lt;div&gt;- y: float&lt;/div&gt;&lt;div&gt;- dx: float&lt;br&gt;&lt;/div&gt;&lt;div&gt;- dy: float&lt;br&gt;&lt;/div&gt;" style="text;strokeColor=none;fillColor=none;align=left;verticalAlign=top;spacingLeft=4;spacingRight=4;overflow=hidden;rotatable=0;points=[[0,0.5],[1,0.5]];portConstraint=eastwest;whiteSpace=wrap;html=1;" vertex="1" parent="NLJNhM4sE701zWvW4vr5-2">
          <mxGeometry y="26" width="250" height="94" as="geometry" />
        </mxCell>
        <mxCell id="NLJNhM4sE701zWvW4vr5-4" value="" style="line;strokeWidth=1;fillColor=none;align=left;verticalAlign=middle;spacingTop=-1;spacingLeft=3;spacingRight=3;rotatable=0;labelPosition=right;points=[];portConstraint=eastwest;strokeColor=inherit;" vertex="1" parent="NLJNhM4sE701zWvW4vr5-2">
          <mxGeometry y="120" width="250" height="8" as="geometry" />
        </mxCell>
        <mxCell id="NLJNhM4sE701zWvW4vr5-5" value="&lt;div&gt;+Sprite(anim: Animation)&lt;/div&gt;&lt;div&gt;+ update(elapsedTime): void&lt;/div&gt;&lt;div&gt;+ getX: float&lt;/div&gt;&lt;div&gt;+ getY: float&lt;/div&gt;&lt;div&gt;+ setX(x: float): void&lt;/div&gt;&lt;div&gt;+ sexY(y: float): void&lt;/div&gt;&lt;div&gt;+getWidth(): int&lt;/div&gt;&lt;div&gt;+getHeight(): int&lt;/div&gt;&lt;div&gt;+ getVelocityX(): float&lt;/div&gt;&lt;div&gt;+ getVelocityY(): float&lt;/div&gt;&lt;div&gt;+ getImage(): Image&lt;/div&gt;&lt;div&gt;+clone(): Object&lt;/div&gt;&lt;div&gt;&lt;br&gt;&lt;/div&gt;" style="text;strokeColor=none;fillColor=none;align=left;verticalAlign=top;spacingLeft=4;spacingRight=4;overflow=hidden;rotatable=0;points=[[0,0.5],[1,0.5]];portConstraint=eastwest;whiteSpace=wrap;html=1;" vertex="1" parent="NLJNhM4sE701zWvW4vr5-2">
          <mxGeometry y="128" width="250" height="202" as="geometry" />
        </mxCell>
      </root>
    </mxGraphModel>
  </diagram>
</mxfile>
